<svg id="Layer_1" data-name="Layer 1" xmlns="http://www.w3.org/2000/svg" viewBox="0 0 20 20"><defs><style>.cls-1,.cls-2{fill:#c2b59b;}.cls-1{fill-rule:evenodd;}</style></defs><title>WebArtboard 1 copyIcons</title><path class="cls-1" d="M9.75,2a7.83,7.83,0,1,0,7.83,7.83A7.83,7.83,0,0,0,9.75,2Zm0,2.58a1.87,1.87,0,0,1,1.88,1.88,1.91,1.91,0,0,1-.28,1L9.74,10.28,8.11,7.45A1.88,1.88,0,0,1,9.76,4.63Zm4.72,9.64H5a.12.12,0,0,1-.12-.13L6.6,9.31c0-.06,0-.12.12-.12H8.39l1.35,2.36L11.1,9.19h1.67c.07,0,.1.06.12.12l1.7,4.82C14.62,14.19,14.54,14.27,14.48,14.27Z"/><circle class="cls-2" cx="9.75" cy="6.52" r="0.82"/></svg>