<svg id="Layer_1" data-name="Layer 1" xmlns="http://www.w3.org/2000/svg" viewBox="0 0 20 20"><defs><style>.cls-1{fill:#c2b59b;}.cls-2{fill:#fff;}</style></defs><title>WebArtboard 1 copy 2Icons</title><circle class="cls-1" cx="10.15" cy="10.14" r="7.48"/><path class="cls-2" d="M12.18,15.18H8.13a3.26,3.26,0,0,1-3.26-3.26V8.35A3.26,3.26,0,0,1,8.13,5.09h4.05a3.26,3.26,0,0,1,3.26,3.26v3.57A3.26,3.26,0,0,1,12.18,15.18ZM8.13,5.82A2.54,2.54,0,0,0,5.59,8.35v3.57a2.54,2.54,0,0,0,2.54,2.54h4.05a2.54,2.54,0,0,0,2.54-2.54V8.35a2.54,2.54,0,0,0-2.54-2.54Z"/><path class="cls-2" d="M10.15,13a2.9,2.9,0,1,1,2.9-2.9A2.91,2.91,0,0,1,10.15,13Zm0-5.08a2.18,2.18,0,1,0,2.18,2.18A2.18,2.18,0,0,0,10.15,8Z"/><circle class="cls-2" cx="13.01" cy="7.33" r="0.6"/></svg>