<svg id="Layer_1" data-name="Layer 1" xmlns="http://www.w3.org/2000/svg" viewBox="0 0 20 20"><defs><style>.cls-1{fill:#c2b59b;fill-rule:evenodd;}</style></defs><title>WebArtboard 1 copy 3Icons</title><path class="cls-1" d="M10.07,1.93a7.82,7.82,0,1,0,7.82,7.82A7.82,7.82,0,0,0,10.07,1.93Zm4.47,10.43L13.29,13.6a.71.71,0,0,1-.22.16.91.91,0,0,1-.27.08h-.18a4.34,4.34,0,0,1-.58-.06,4.4,4.4,0,0,1-1-.3,8.22,8.22,0,0,1-1.31-.72,9.82,9.82,0,0,1-1.56-1.32A10.33,10.33,0,0,1,7.09,10.2a8.88,8.88,0,0,1-.7-1.1A5.92,5.92,0,0,1,6,8.19a4.83,4.83,0,0,1-.18-.71,2.32,2.32,0,0,1,0-.47c0-.11,0-.18,0-.19a.91.91,0,0,1,.08-.27A.7.7,0,0,1,6,6.34L7.29,5.09A.42.42,0,0,1,7.59,5,.35.35,0,0,1,7.8,5,.65.65,0,0,1,8,5.2L9,7.11a.46.46,0,0,1,0,.33.59.59,0,0,1-.16.3l-.46.46a.16.16,0,0,0,0,.06.23.23,0,0,0,0,.07,1.71,1.71,0,0,0,.17.45,4.17,4.17,0,0,0,.35.55,6.09,6.09,0,0,0,.67.75,6.21,6.21,0,0,0,.75.67,4.34,4.34,0,0,0,.55.35,1.46,1.46,0,0,0,.34.14l.12,0h.06l.06,0,.54-.55a.58.58,0,0,1,.4-.15.49.49,0,0,1,.25.06h0l1.82,1.07a.47.47,0,0,1,.24.31A.43.43,0,0,1,14.54,12.35Z"/></svg>